<svg id="Layer_1" data-name="Layer 1" xmlns="http://www.w3.org/2000/svg" viewBox="0 0 49 46.82"><path d="M36.7,29.63s6.33,14.3,2.89,16.8S24.5,38.5,24.5,38.5,12.86,48.93,9.41,46.43s2.89-16.8,2.89-16.8S-1.23,21.79.09,17.73,17,15.28,17,15.28,20.24,0,24.5,0c3.31,0,6,9.22,7.08,13.34-.41.46-.8.93-1.19,1.4a46.72,46.72,0,0,0-6.33,10,20.24,20.24,0,0,0-5.72-5.11h0a1.14,1.14,0,0,0-1.6.47l-2.26,4.6a1.14,1.14,0,0,0,.64,1.58h0a14.43,14.43,0,0,1,4,2.08,10.77,10.77,0,0,1,3,3.55h0a1.16,1.16,0,0,0,1,.61l2.53,0a1.13,1.13,0,0,0,1-.66h0a46.21,46.21,0,0,1,6.51-10.59h0A57.35,57.35,0,0,1,39.53,15c4.19.07,8.7.65,9.38,2.75C50.23,21.79,36.7,29.63,36.7,29.63Z" fill="#f2ba2f"/><path d="M38.78,8.94a1,1,0,0,0-1.39,0,82.85,82.85,0,0,0-6.13,6.57,47.44,47.44,0,0,0-7,11.62,18.61,18.61,0,0,0-5.77-6,.75.75,0,0,0-1.08.3L15.86,24.5a.74.74,0,0,0,.39,1,15,15,0,0,1,3.52,2A11.65,11.65,0,0,1,22.82,31a.84.84,0,0,0,.73.42l1.52,0a.83.83,0,0,0,.74-.47,46.36,46.36,0,0,1,6.46-10.39,65.36,65.36,0,0,1,8.39-8,1,1,0,0,0,.1-1.38Z" fill="#4bc97e"/></svg>