<svg id="Layer_1" data-name="Layer 1" xmlns="http://www.w3.org/2000/svg" viewBox="0 0 49 49"><circle cx="24.5" cy="24.5" r="24.5" transform="translate(-10.15 24.5) rotate(-45)" fill="#8ac900"/><circle cx="24.5" cy="24.5" r="23.13" transform="matrix(0.92, -0.38, 0.38, 0.92, -7.51, 11.24)" fill="#00aeff"/><path d="M32.92,30.4A17.91,17.91,0,0,1,16.3,14a20.26,20.26,0,0,1,0-2.2,2.35,2.35,0,0,0-3.83-2,19,19,0,1,0,29,23.33,2.35,2.35,0,0,0-2.72-3.31A17.89,17.89,0,0,1,32.92,30.4Z" fill="#0099e2"/><path d="M41.43,22.94c-2.52,3.17-8.86,2.33-14.16-1.87s-7.56-10.18-5-13.35,8.85-2.34,14.15,1.86S43.94,19.77,41.43,22.94Z" fill="#59cfff"/><path d="M24.5,0A24.5,24.5,0,1,0,49,24.5,24.5,24.5,0,0,0,24.5,0Zm0,45.35A20.85,20.85,0,1,1,45.35,24.5,20.84,20.84,0,0,1,24.5,45.35Z" fill="#0062e0"/><path d="M24.5,38.9a14.4,14.4,0,0,1,0-28.8,14.25,14.25,0,0,1,8.14,2.53l3-3.26,3.67,14.88L24.12,22l2.54-2.8a5.65,5.65,0,0,0-2.16-.42,5.73,5.73,0,1,0,5.39,7.67l.64-1.78L39,26.31l-.7,2.33A14.49,14.49,0,0,1,24.5,38.9Z" fill="#0062e0"/><path d="M24.5,32.44A7.94,7.94,0,1,1,30,18.79l-1.48,1.63,7.82,1.16-1.9-7.67-1.58,1.73A12.19,12.19,0,1,0,36.18,28L32,27.19A7.93,7.93,0,0,1,24.5,32.44Z" fill="#fff"/></svg>