<?xml version="1.0" encoding="UTF-8"?><svg id="Layer_1" xmlns="http://www.w3.org/2000/svg" viewBox="0 0 49 49"><circle cx="24.5" cy="24.5" r="24.5" fill="#8ac900"/><circle cx="24.34" cy="24.47" r="23.02" fill="#00aeff"/><path d="M32.92,30.4c-8.83-.61-15.89-7.58-16.62-16.4-.04-.73-.04-1.47,0-2.2,.1-1.29-.87-2.42-2.16-2.52-.6-.05-1.2,.14-1.67,.52-8.09,6.68-9.23,18.66-2.55,26.75,6.68,8.09,18.66,9.23,26.75,2.55,1.99-1.64,3.62-3.67,4.8-5.97,.58-1.16,.1-2.57-1.07-3.15-.51-.25-1.1-.31-1.65-.16-1.9,.51-3.87,.71-5.83,.58Z" fill="#0099e2"/><path d="M41.43,22.94c-2.52,3.17-8.86,2.33-14.16-1.87s-7.56-10.18-5-13.35,8.85-2.34,14.15,1.86c5.3,4.2,7.52,10.19,5.01,13.36Z" fill="#59cfff"/><path d="M24.5,0C10.97,0,0,10.97,0,24.5s10.97,24.5,24.5,24.5,24.5-10.97,24.5-24.5S38.03,0,24.5,0Zm0,45.35c-11.52,0-20.85-9.33-20.85-20.85S12.99,3.65,24.5,3.65s20.85,9.33,20.85,20.85h0c0,11.51-9.32,20.84-20.83,20.85,0,0-.01,0-.02,0Z" fill="#0062e0"/><path d="M24.5,38.9c-7.95,0-14.4-6.45-14.4-14.4s6.45-14.4,14.4-14.4c2.91,0,5.75,.88,8.14,2.53l3-3.26,3.67,14.88-15.19-2.25,2.54-2.8c-.69-.28-1.42-.42-2.16-.42-3.16,0-5.73,2.56-5.73,5.73,0,3.16,2.56,5.73,5.73,5.73,2.42,0,4.57-1.52,5.39-3.79l.64-1.78,8.47,1.64-.7,2.33c-1.85,6.07-7.45,10.23-13.8,10.26Z" fill="#0062e0"/><path d="M24.5,32.44c-4.39,0-7.95-3.54-7.96-7.92,0-4.39,3.54-7.95,7.92-7.96,2.06,0,4.05,.8,5.53,2.23l-1.48,1.63,7.82,1.16-1.9-7.67-1.58,1.73c-4.9-4.62-12.61-4.39-17.23,.51-4.62,4.9-4.39,12.61,.51,17.23,4.9,4.62,12.61,4.39,17.23-.51,1.3-1.38,2.26-3.05,2.81-4.87l-4.18-.81c-1.14,3.16-4.14,5.27-7.5,5.25Z" fill="#fff"/></svg>