<svg id="Layer_1" data-name="Layer 1" xmlns="http://www.w3.org/2000/svg" viewBox="0 0 49 49"><path d="M27.74,8.4A18.89,18.89,0,0,0,13.85,40.11,18.84,18.84,0,0,0,24.29,43.4h.21A18.9,18.9,0,0,0,43.4,24.5v-.05a18.87,18.87,0,0,0-5.34-13.11l.32.34A18.79,18.79,0,0,0,27.74,8.4Z" fill="#455ea7"/><path d="M13.85,40.11h0l-.44-.31,0,0c-.14-.1-.28-.2-.41-.31l0,0a16.17,16.17,0,0,1-1.26-1.07l-.05,0L11.26,38l0,0c-.39-.38-.76-.78-1.12-1.2l0-.06-.3-.36,0-.06c-.22-.29-.45-.58-.66-.88h0L8.76,35l-.06-.09-.24-.37-.05-.09c-.09-.14-.18-.28-.26-.43l0,0-.27-.48v0c-.08-.14-.16-.29-.23-.44l-.06-.11-.18-.37-.06-.13L7.14,32l0-.08L6.9,31.4v0c-.06-.15-.12-.3-.17-.45a1.21,1.21,0,0,1,0-.14c0-.13-.09-.25-.13-.37s0-.11,0-.16l-.12-.39a.56.56,0,0,0,0-.12l-.14-.53v0c0-.16-.08-.32-.11-.47s0-.11,0-.17,0-.24-.07-.37a1.36,1.36,0,0,1,0-.17c0-.13,0-.26-.07-.39a.77.77,0,0,0,0-.15c0-.18,0-.36-.08-.54v0l-.06-.5c0-.06,0-.12,0-.18l0-.37c0-.07,0-.13,0-.2s0-.25,0-.38a1,1,0,0,1,0-.17c0-.17,0-.34,0-.51H0V24.5A24.5,24.5,0,0,0,24.29,49V43.4A18.84,18.84,0,0,1,13.85,40.11Z" fill="#91b9e3"/><path d="M43.4,24.45v.05A18.9,18.9,0,0,1,24.5,43.4h-.21V49h.21A24.5,24.5,0,0,0,49,24.5v-.05Z" fill="#64abd8"/><path d="M5.6,24.55V24.5A18.9,18.9,0,0,1,24.5,5.6h.21V0H24.5A24.5,24.5,0,0,0,0,24.5v.05Z" fill="#64abd8"/><path d="M24.5,5.6A18.9,18.9,0,0,0,5.6,24.5c0,.19,0,.37,0,.56a1,1,0,0,0,0,.17c0,.13,0,.25,0,.38s0,.13,0,.2l0,.37c0,.06,0,.12,0,.18l.06.5v0c0,.18,0,.36.08.54a.77.77,0,0,1,0,.15c0,.13.05.26.07.39a1.36,1.36,0,0,0,0,.17c0,.13,0,.25.07.37s0,.11,0,.17.07.31.11.47v0l.14.53a.56.56,0,0,1,0,.12l.12.39c0,.05,0,.1,0,.16s.08.24.13.37a1.21,1.21,0,0,0,0,.14c0,.15.11.3.17.45v0l.21.51,0,.08.18.4.06.13.18.37.06.11c.07.15.15.3.23.44v0l.27.48,0,0c.08.15.17.29.26.43l.05.09.24.37.06.09.29.42h0c.21.3.44.59.66.88l0,.06.3.36,0,.06c.36.42.73.82,1.12,1.2l0,0,.36.34.05,0a16.17,16.17,0,0,0,1.26,1.07l0,0c.13.11.27.21.41.31l0,0,.44.31h0A18.9,18.9,0,0,1,38.38,11.68l-.32-.34h0L37.73,11h0l-.33-.31v0l-.34-.3,0,0c-.11-.1-.22-.2-.34-.29l0,0-.35-.29h0c-.11-.1-.23-.19-.36-.29h0l-.38-.29h0a19.38,19.38,0,0,0-3.31-1.91l-.06,0-.38-.16-.09,0-.34-.14-.13,0-.32-.12-.14,0-.31-.1-.15,0L30,6.42l-.17,0-.29-.09-.18,0-.28-.07-.19,0-.28-.07-.19,0L28.14,6l-.2,0-.28,0-.2,0-.28,0-.21,0-.28,0-.21,0-.28,0-.21,0-.3,0H25.5l-.34,0H24.5Z" fill="#334c99"/><path d="M30.61,23.67a2.52,2.52,0,0,1,.14.82v7.86a2.48,2.48,0,0,1-2.47,2.47H20.72a2.47,2.47,0,0,1-1.21-.31,2.49,2.49,0,0,0,2.33,1.65h7.57a2.49,2.49,0,0,0,2.47-2.47V25.82A2.49,2.49,0,0,0,30.61,23.67Z" fill="#334c99"/><path d="M28.28,34.82a2.48,2.48,0,0,0,2.47-2.47V24.49a2.52,2.52,0,0,0-.14-.82A2.46,2.46,0,0,0,29,22.13V19.87a4.43,4.43,0,0,0-.49-2,4.33,4.33,0,0,0-.83-1.15A4.49,4.49,0,0,0,20,19.87v2.26a2.46,2.46,0,0,0-1.76,2.36v7.86a2.45,2.45,0,0,0,2.47,2.47Zm-2.79-3.88h-2a.37.37,0,0,1-.35-.34v-.08l.39-3.15a1.37,1.37,0,0,1-.45-1,1.42,1.42,0,0,1,.06-.42,1.4,1.4,0,0,1,1.34-1l.28,0h0a1.39,1.39,0,0,1,1.12,1.37,1.37,1.37,0,0,1-.45,1l.39,3.15A.37.37,0,0,1,25.49,30.94Zm-1-14.12a2,2,0,0,1,.35,0,3,3,0,0,1,1.8.87,3.11,3.11,0,0,1,.59.84,2.87,2.87,0,0,1,.31,1.31V22h-6.1V19.87c0-.06,0-.12,0-.17a3,3,0,0,1,.89-2A3,3,0,0,1,24.5,16.82Z" fill="#fff"/><path d="M23.51,30.94h.56a.37.37,0,0,1-.35-.42l.39-3.15a1.37,1.37,0,0,1-.45-1A1.39,1.39,0,0,1,24.78,25h0l-.28,0a1.4,1.4,0,0,0-1.34,1,1.42,1.42,0,0,0-.06.42,1.37,1.37,0,0,0,.45,1l-.39,3.15v.08A.37.37,0,0,0,23.51,30.94Z" fill="#334c99"/><path d="M24.71,0V5.6h.45l.34,0h.19l.3,0,.21,0,.28,0,.21,0,.28,0,.21,0,.28,0,.2,0,.28,0,.2,0,.28.06.19,0,.28.07.19,0,.28.07.18,0,.29.09.17,0,.3.09.15,0,.31.1.14,0,.32.12.13,0,.34.14.09,0,.38.16.06,0a19.38,19.38,0,0,1,3.31,1.91h0l.38.29h0c.13.1.25.19.36.29h0l.35.29,0,0c.12.09.23.19.34.29l0,0,.34.3v0l.33.31h0l.32.33h0A18.87,18.87,0,0,1,43.4,24.45H49v.05A24.5,24.5,0,0,0,24.71,0Z" fill="#91b9e3"/><path d="M22.51,21.21V22h5V19.87a2.87,2.87,0,0,0-.31-1.31,3,3,0,0,0-1.62-.47A3.12,3.12,0,0,0,22.51,21.21Z" fill="#455ea7"/><path d="M24.85,16.85a2,2,0,0,0-.35,0,3,3,0,0,0-2.15.9,3,3,0,0,0-.89,2A4.42,4.42,0,0,1,24.85,16.85Z" fill="#455ea7"/><path d="M29,22.13a2.5,2.5,0,0,1,1.06.64V21.21a4.39,4.39,0,0,0-1.55-3.36,4.43,4.43,0,0,1,.49,2Z" fill="#334c99"/><path d="M21.46,19.7c0,.05,0,.11,0,.17V22h1.06v-.81a3.12,3.12,0,0,1,3.11-3.12,3,3,0,0,1,1.62.47,3.11,3.11,0,0,0-.59-.84,3,3,0,0,0-1.8-.87A4.42,4.42,0,0,0,21.46,19.7Z" fill="#334c99"/></svg>